# xmcd
#
# Track frame offsets:
#	150
#	15175
#	30603
#	47535
#	62796
#	79671
#	94705
#	108744
#	124497
#	141666
#	156230
#	173051
#	188705
#	203725
#
# Disc length: 2959 seconds
#
# Revision: 0
# Processed by: cddbd v1.5.1PL0 Copyright (c) Steve Scherf et al.
# Submitted via: dBpowerAMP V4.0
#
DISCID=bb0b8d0e
DTITLE=Ric Corin - Nashville Legend (In My Own Mind)
DYEAR=1900
DGENRE=Country
TTITLE0=Born Rich
TTITLE1=Ordinary Man
TTITLE2=You Get Better Looking Everyday
TTITLE3=It Takes Us All Night
TTITLE4=Hands of Time
TTITLE5=The One You Love
TTITLE6=Don't Name It After Me
TTITLE7=She Gave Her Hand to Me
TTITLE8=High School Hero
TTITLE9=You Only Live Once
TTITLE10=She'll Still be Loving Me
TTITLE11=There'll Be Another Song
TTITLE12=Always and Only
TTITLE13=Oh Lord
EXTD=
EXTT0=
EXTT1=
EXTT2=
EXTT3=
EXTT4=
EXTT5=
EXTT6=
EXTT7=
EXTT8=
EXTT9=
EXTT10=
EXTT11=
EXTT12=
EXTT13=
PLAYORDER=
